<svg xmlns="http://www.w3.org/2000/svg" width="1200" height="260" viewBox="0 0 1200 260">
  <defs>
    <linearGradient id="g" x1="0" y1="0" x2="1" y2="1">
      <stop offset="0" stop-color="#22d3ee" stop-opacity="0.25"/>
      <stop offset="1" stop-color="#6366f1" stop-opacity="0.25"/>
    </linearGradient>
    <filter id="shadow" x="-20%" y="-50%" width="140%" height="200%">
      <feDropShadow dx="0" dy="10" stdDeviation="12" flood-color="#000" flood-opacity="0.45"/>
    </filter>
  </defs>
  <rect x="0" y="0" width="1200" height="260" rx="28" fill="url(#g)" opacity="0.9"/>
  <g filter="url(#shadow)">
    <rect x="40" y="60" width="240" height="140" rx="22" fill="#0b1220" stroke="#ffffff" stroke-opacity="0.12"/>
    <rect x="320" y="60" width="240" height="140" rx="22" fill="#0b1220" stroke="#ffffff" stroke-opacity="0.12"/>
    <rect x="600" y="60" width="240" height="140" rx="22" fill="#0b1220" stroke="#ffffff" stroke-opacity="0.12"/>
    <rect x="880" y="60" width="240" height="140" rx="22" fill="#0b1220" stroke="#ffffff" stroke-opacity="0.12"/>
  </g>
  <g font-family="Inter, system-ui, -apple-system, Segoe UI, Roboto, Arial" fill="#e5e7eb">
    <text x="70" y="95" font-size="14" opacity="0.7">1</text>
    <text x="70" y="125" font-size="18" font-weight="600">Evidence</text>
    <text x="70" y="152" font-size="13" opacity="0.75">Images • reports • manuals</text>

    <text x="350" y="95" font-size="14" opacity="0.7">2</text>
    <text x="350" y="125" font-size="18" font-weight="600">AI assist</text>
    <text x="350" y="152" font-size="13" opacity="0.75">Detect • summarize • compare</text>

    <text x="630" y="95" font-size="14" opacity="0.7">3</text>
    <text x="630" y="125" font-size="18" font-weight="600">Decision</text>
    <text x="630" y="152" font-size="13" opacity="0.75">Rationale • risk • review date</text>

    <text x="910" y="95" font-size="14" opacity="0.7">4</text>
    <text x="910" y="125" font-size="18" font-weight="600">Memory</text>
    <text x="910" y="152" font-size="13" opacity="0.75">Timeline • search • alerts</text>
  </g>
  <g stroke="#e5e7eb" stroke-opacity="0.35" stroke-width="2" fill="none">
    <path d="M285 130 C300 130 305 130 320 130"/>
    <path d="M565 130 C580 130 585 130 600 130"/>
    <path d="M845 130 C860 130 865 130 880 130"/>
    <path d="M305 130 l-10 -8 m10 8 l-10 8"/>
    <path d="M585 130 l-10 -8 m10 8 l-10 8"/>
    <path d="M865 130 l-10 -8 m10 8 l-10 8"/>
  </g>
</svg>